<svg width="86" height="86" fill="none" xmlns="http://www.w3.org/2000/svg"><path d="M75.306 64.933L44.261 82.415v-13.62l19.344-10.597 11.702 6.735zm2.129-1.917V26.442L66.07 32.978V56.48l11.365 6.536zm-66.951 1.917L41.53 82.415v-13.62L22.185 58.198l-11.701 6.735zm-2.129-1.917V26.442l11.366 6.536V56.48L8.355 63.016zm1.33-38.941L41.53 6.144v13.171L20.981 30.57 9.686 24.075zm66.42 0L44.26 6.144v13.171L64.81 30.57l11.295-6.495zM41.53 65.704L22.451 55.247V34.545L41.53 45.518v20.186zm2.73 0l19.08-10.457V34.545L44.261 45.518v20.186zm-20.52-33.55L42.9 21.668l19.161 10.484-19.16 11.018-19.162-11.017z" fill="#272727"/></svg>