<svg width="25" height="25" fill="none" xmlns="http://www.w3.org/2000/svg"><g clip-path="url(#clip0)"><path fill-rule="evenodd" clip-rule="evenodd" d="M19.275 7.31c2.861 2.968 2.87 7.612.023 10.353-2.821 2.718-6.917 2.776-9.781-.122l-1.093 1.092a.572.572 0 01-.565-.564l-.12-2.731a.546.546 0 01.555-.555l2.645.205a.57.57 0 01.565.565L10.5 16.56c2.344 2.376 5.546 2.35 7.856.125 2.33-2.242 2.321-6.04-.018-8.47-2.306-2.392-6.027-2.567-8.365-.425l-.962-.963c2.853-2.658 7.432-2.454 10.265.485z" fill="#F49E4C"/></g><defs><clipPath id="clip0"><path fill="#fff" transform="rotate(135 9.672 11.328)" d="M0 0h17v17H0z"/></clipPath></defs></svg>