<svg width="66" height="66" fill="none" xmlns="http://www.w3.org/2000/svg"><path d="M0 0h66v66H0V0zm60.596 50.263c-.482-3.02-2.45-5.544-8.26-7.905-2.02-.945-4.276-1.611-4.942-3.137-.247-.904-.29-1.397-.13-1.935.419-1.784 2.514-2.31 4.169-1.815 1.074.332 2.062 1.149 2.685 2.47 2.846-1.858 2.846-1.858 4.824-3.093-.74-1.149-1.105-1.654-1.61-2.137-1.731-1.945-4.04-2.933-7.789-2.846l-1.945.248c-1.858.451-3.63 1.44-4.704 2.761-3.127 3.546-2.224 9.733 1.567 12.3 3.75 2.804 9.238 3.416 9.948 6.06.656 3.224-2.395 4.255-5.414 3.878-2.224-.495-3.46-1.61-4.825-3.673l-5.028 2.89c.57 1.321 1.236 1.89 2.223 3.05 4.781 4.824 16.748 4.576 18.895-2.762.074-.247.656-1.945.204-4.533l.132.18zM35.89 30.335h-6.178c0 5.328-.033 10.624-.033 15.964 0 3.385.172 6.499-.375 7.456-.914 1.891-3.244 1.654-4.309 1.322-1.084-.536-1.643-1.279-2.277-2.353-.183-.291-.311-.537-.354-.537l-5.016 3.094c.837 1.73 2.062 3.224 3.642 4.169 2.353 1.406 5.511 1.858 8.82 1.117 2.148-.623 4.007-1.901 4.972-3.877 1.407-2.558 1.106-5.693 1.095-9.207.033-5.651 0-11.3 0-16.995l.013-.153z" fill="#272727"/></svg>