<svg width="20" height="21" fill="none" xmlns="http://www.w3.org/2000/svg"><g clip-path="url(#clip0)"><path d="M19.648 11.352l-3.867 5.073a1.193 1.193 0 01-.85.332c-.331 0-.615-.114-.849-.341a1.124 1.124 0 01-.352-.84c0-.331.118-.614.352-.848l3.223-4.215L14.082 6.3a1.145 1.145 0 01-.352-.84c0-.325.118-.604.352-.838.234-.235.518-.352.85-.352.332 0 .615.117.85.352l3.866 5.053c.235.234.352.514.352.84 0 .324-.117.604-.352.838zM10 19.274a3.087 3.087 0 00-.059.225c-.026.11-.045.185-.058.224l-.069.205-.097.205-.147.156-.205.136-.263.069-.352.029c-.313 0-.612-.163-.898-.488-.287-.325-.391-.637-.313-.936L10 1.772c.221-.833.846-1.25 1.875-1.25.287 0 .479.154.576.46.098.305.101.627.01.965L10 19.274zm-4.082-2.858a1.175 1.175 0 01-.85.341c-.332 0-.615-.11-.85-.332L.353 11.352A1.144 1.144 0 010 10.513c0-.325.117-.605.352-.839l3.867-5.053c.234-.235.517-.352.85-.352.331 0 .615.117.849.352.234.234.352.513.352.839 0 .325-.118.604-.352.839l-3.223 4.214 3.223 4.215c.234.234.352.517.352.849 0 .331-.118.611-.352.839z" fill="#272727"/></g><defs><clipPath id="clip0"><path fill="#fff" transform="translate(0 .523)" d="M0 0h20v20H0z"/></clipPath></defs></svg>